<?xml version="1.0"?><svg version="1.2" baseProfile="tiny-ps" viewBox="0 0 300 300" xmlns="http://www.w3.org/2000/svg" xmlns:xlink="http://www.w3.org/1999/xlink"><title>AVIL's Bathrooms</title><g><g fill="#feedcf" transform="matrix(.1 0 0 -.1 0 300)"><path d="M0 1500V0h3000v3000H0V1500z"/></g><g fill="#e4e1d4" transform="matrix(.1 0 0 -.1 0 300)"><path d="M0 1500V0h3000v3000H0V1500zm1610 1080v-10h-139l-6 10-6 10h151v-10zm-94-148c-22-5-30 3-21 18l7 11 15-13 16-13-17-3zm20-37-5-15h19v-45l8 12 8 12 11-29 11-30h-9c-5 0-9-5-9-11v-10l9 5 9 6 30-49 31-49 38-6c21-4 43-10 50-14 12-7 93-175 93-193 0-5 9-27 20-48 10-21 29-67 41-102s25-66 29-69c3-3 14-32 24-65s24-69 30-80c7-11 22-54 35-95 12-41 28-86 34-99l12-24v-192l-32-79c-18-43-33-85-33-92 0-8-4-14-9-14s-13-12-19-27c-5-16-19-39-32-53l-22-25 14 25c19 31 33 126 30 205l-1 60-16 55c-9 30-25 81-36 113l-20 57-25 25-25 25 9 17 10 17-15 22c-8 12-13 28-12 36 2 7-7 40-19 73-31 81-32 85-29 89 1 1-3 9-9 17s-22 46-34 84c-12 39-26 75-30 80-4 6-13 28-20 50s-41 112-75 200c-35 88-66 172-70 188-4 15-11 30-16 33-15 9-10 24 7 24h16l-6-15zm71-791c-3-3-12-4-19-1l-13 5 19 1c11 1 17-2 13-5zm-37-13v-10l43-4 42-4-57-1-58-2v20h-19c-11 0-22-4-25-9s-19-11-36-13c-16-3-27-2-24 1 11 12 70 30 102 30l32 1v-9zm-530-281c0-5-5-10-11-10h-10l6 10c3 6 8 10 11 10 2 0 4-4 4-10zm-10-52c0-7-9-24-21-38l-20-25 18 38c18 39 23 45 23 25zm1120-70v-18h20v-29c0-31 37-159 50-176 5-5 16-36 25-68l17-59-7-134-7-134h-114l-11-11-11-11-18 5-19 5 21 1 21 1 17 19 18 19 1 79 1 78-33 75c-17 41-41 93-51 115l-19 40 18 7c27 10 29 15 41 114 6 49 13 97 16 108l6 19 9-14c5-8 9-22 9-31zm-1180-48c-6-11-12-20-14-20s-2 9 1 20 9 20 15 20h9l-11-20zM854 845c-4-8-8-15-10-15s-4 7-4 15 4 15 10 15h9l-5-15zm958-129-4-54 16-33 16-32-20 18-19 17-7 45-7 45 12 24c6 13 12 24 14 24s2-24-1-54zM824 574c15-13 23-24 17-24-5 0-13 5-16 10l-6 10H698l35 39c19 21 39 49 43 62l8 24 6-49 6-49 28-23zm-159-24c-3-5-13-10-21-10s-14 5-14 10v10h41l-6-10z"/></g><g fill="#e0dccf" transform="matrix(.1 0 0 -.1 0 300)"><path d="M1560 2670c0-5 5-10 10-10 6 0 10 5 10 10 0 6-4 10-10 10-5 0-10-4-10-10zm60-4c0-2 7-7 16-10l15-6-6 10c-6 10-25 14-25 6zm-16-24 7-12h-18l-18-1 18-10 17-10v-39h-139l-16 28-16 27 5-23 4-23-14 12c-31 26-28-12 9-88l10-23-16-18-17-19 7-6 6-7h-22l5-17 6-18-12 15-11 15 2-20c1-11 1-30 0-43l-1-23-18 5-18 6-1-27c0-16-2-38-4-50l-3-22-8 5c-4 2-12-4-17-15-16-29-13-39 4-17 19 25 19 16 1-20-8-15-13-31-10-36l5-8-12 2-12 3-2-28c-1-15-6-32-12-38l-9-9v32l-1 33 16 13 16 14-18-6-18-6 6 10 6 9-18 10-18 9 3-60 4-60-31 7-31 7v-22h40v-9c0-5-9-12-19-16l-20-6 2-34 2-35 17 6 16 5 8-12 7-12-13 8-13 8 5-14 5-14-14-27c-14-30-26-38-17-13l6 15h-23l16 16c24 24 12 27-31 9l-39-16 24-18 24-18-18-10-18-10 22-22 21-21-19-12-19-12 9-22 8-23-12 5-13 5-1 21-2 22 17 12c21 17 8 18-17 2l-20-12 10-18 10-18h-9c-5 0-9-7-9-15v-14l8 5c4 2 10 0 14-6l6-10 11 6 10 6-12-22-12-22-13 6-14 5-5-8c-3-4-6-28-7-54l-3-46-10 8-11 9-25-13-25-14 18-1h17v-21l11 7 11 7-13 8-14 9h10c6 0 16-4 23-9l14-8-16-6c-9-4-16-11-16-17v-11l10 6 10 6-7-16-6-17-9 14-10 13 5-22 5-23h-19l6-10 6-10-14 6-14 5v-30l10 6 10 6-6-17c-4-10-7-23-7-29l-1-12-12 15c-7 8-21 16-32 17l-20 2 13-5 12-6-6-9-5-9 18-1 18-1-12-5c-7-2-13-9-13-15v-10l16 6 17 6-11-12c-6-7-10-17-10-23 0-5-5-11-11-13l-11-4 6 19 7 18-14-12-13-13 12-12 11-11-14-34c-8-18-14-36-14-39s-3-9-7-12l-7-7 7 13 7 12h-10c-14 0-14-17-1-25l9-6-5-14-6-15-9 6-9 5 6-15 6-16h-30l-6-16c-8-22-8-26 4-19l10 6v-10c0-6-5-11-10-11h-11l3-13c1-6-5-33-15-60l-19-47-10 6-10 7 6-21 7-20-11-7-10-6 6-11 7-11-10 6-11 7-12-15-13-15 17 6 16 6v-16c0-9-4-16-10-16h-9l5-13 4-13-20-21-20-22 7-17 6-17-9 5-9 6-2-29c-1-16-7-38-13-49l-11-21-9 6-9 6 4-20 3-19-14-21-15-21-9 5-8 5-6-16-6-15 13 7 12 8-14-17c-8-10-16-15-19-13-2 3-13-6-24-19l-20-25-9 6-9 5 2-13 3-13-32-1-32-1-16-13-15-12-13 9-12 10-20-6-20-6v-27l-1-28h515l6 11 7 10 14-5 14-6-9 19-10 18 7 7 6 7-18-7-19-7 7 11 6 11-11 7-12 7 7-11 7-12h-9c-5 0-12 3-16 7-3 4-13 8-21 9l-15 2 6-9 5-9 11 6 11 7-7-11c-4-7-16-12-28-12h-20l5 14 6 14-22-4-22-4-29 23-29 23v30c1 50 15 84 36 84h12l-10-8c-5-4-11-17-11-30l-1-22 11 9 12 10-1 28c0 15-4 33-7 38l-7 11 16 49c9 28 23 54 30 58l13 8-5 9c-3 5-1 11 5 15l10 6-5 10-6 9h10c5 0 14-12 20-27l11-28-4 22-4 23 9 6 9 5-6 10c-3 5-9 7-14 4l-9-5-7 11-7 12 11-7 11-7 10 20c6 11 11 25 11 31v11l-10-6-10-6v9c0 5 16 13 35 19l35 11v-18c0-11 5-22 10-25l11-7-7 29c-4 15-8 30-10 32s2 13 8 25l11 21-33-33c-18-18-35-30-39-27-3 3 0 10 8 14 7 5 13 12 14 17s6 8 11 6l8-3-5 16-6 15 22 21 22 20-20-6-20-7 20 13c25 16 45 41 39 51-2 4 0 9 6 13l10 6v-10c0-6 4-11 10-11h9l-5 15-6 15h23l-5 9-6 9 17 13 16 14 4-12c3-7 11-13 19-13h14v17c0 9 3 14 6 10 3-3 3-14 0-24l-6-19h-20c-11 0-20 4-20 8s-4 8-9 8h-10l4-20 4-20-15-15-16-15-8 5-9 6-12-23-12-23 16 14c10 7 17 10 17 6s6-2 14 4l13 11 14-17 14-18-16 12-15 13-12-12-12-12v-156h15c20 0 19-12-6-54l-21-36 7-75 7-75h58v-80h-20v-60h80v-52l80 7 80 7v-22h-80v-20h89l6-10 7-11 14 12 14 11 15-6 15-5v24l20-25 20-25 20 25 20 25v-13c0-7 7-20 15-28l15-15 172-4c95-1 233-4 306-6l132-3v-18l16 13 16 13 8-14 8-14 15 13 15 12 5-18 5-18 1 18 1 17h14c8 0 16-5 18-11l4-12 33 17 33 18 27-8c14-4 62-8 106-8l80-2 40 22 40 22 9 33 10 33-12 4-12 4 10 17 9 18-6 21c-3 12-9 22-13 22h-7l5 25 4 25-15-6-16-6 6 21 5 21h-22v21c0 12-11 43-24 69-13 27-22 51-19 54 4 3-6 17-21 31l-27 25h25l-20 15-19 15 15 10 15 10-22 18-21 17v28l1 28-17 18c-9 9-16 25-16 34v16l-17-6-16-6 7 12 8 12-12 30c-7 16-16 29-21 29h-9v50h-22l5 20 5 20-19 24c-10 13-19 29-19 35s-4 11-10 11h-10v56l-12 12-12 12 15 1h14l-23 9-23 10 11 20 11 20h-43l6 16 6 16-16-6-16-6 4 24 5 24-24 28-23 27v57h-9c-5 0-11 13-14 29l-6 28-21 6-22 6 7 11 6 10-11 35-12 35h-23l14 9 14 9-7 10-7 11-14-6-15-5v20c0 12-4 24-10 27-5 3-10 14-10 24s-7 24-15 31l-15 12v47l-50 65c-28 36-48 66-44 66s1 7-6 15l-12 14 6 10c9 13-4 41-18 41h-13l-13 40-13 40h-14c-7 0-16-6-19-13-6-17-32-18-38-2l-4 12 21-1 22-1 3 16 3 16-21 6-21 6-6 19-5 20-17 5-18 4 5-23 4-24h-21l6 15 5 16-13-3-13-3 1 18c0 9 1 22 2 28l1 11 14-11 14-12 6 9 5 9-24 11-25 12v19c0 27-10 51-21 51h-10l11-20 11-20h-8c-5 0-17 14-26 30l-18 30h13l13 1-28 15-27 15-10-6-10-6v21h16c8 0 24-5 35-10l19-11v10c0 5-11 12-24 15s-32 9-42 13l-17 6 7-11zm-88-210c-22-5-30 3-21 18l7 11 15-13 16-13-17-3zm20-37-5-15h19v-45l8 12 8 12 11-29 11-30h-9c-5 0-9-5-9-11v-10l9 5 9 6 30-49 31-49 38-6c21-4 43-10 50-14 12-7 93-175 93-193 0-5 9-27 20-48 10-21 29-67 41-102s25-66 29-69c3-3 14-32 24-65s24-69 30-80c7-11 23-54 35-95 13-41 28-86 34-99l12-24v-192l-33-85c-19-47-38-92-43-100-4-8-16-29-25-47s-23-38-32-45l-17-13 17 25 16 26 7 59c5 33 7 91 6 130l-2 70-9 9c-6 6-10 18-10 29 0 10-11 52-25 92l-24 73-26 26-26 26 10 19 11 19-15 12-15 12v27c0 14-9 51-20 81-28 75-30 80-27 84 1 1-3 9-9 17s-22 46-34 84c-12 39-26 75-30 80-4 6-13 28-20 50s-41 112-75 200c-35 88-66 172-70 188-4 15-11 30-16 33-15 9-10 24 7 24h16l-6-15zm-35-46 11-21-11 6-11 7 6-15c3-9 10-14 14-11l8 5 5-21 5-20-14 12c-8 6-14 8-14 5 0-4-6-1-13 6l-13 13v28c0 32 11 35 27 6zm326-53-5-14 8-8 9-9-9-15-10-15v25h-15c-8 0-15 4-15 10v9l15-6 16-5-2 8c-3 16 1 34 7 34 3 0 4-6 1-14zm-258-121 1-10-10 15-10 15v-35h10c6 0 10-5 10-11v-11l-15 12c-8 7-15 20-15 29v16l-11-15-11-15 5 15 5 15 12-3 12-3-7 23-6 23 15-25c9-14 15-29 15-35zm-151-7-3-13 11 2 11 2v-29l-18 16-19 17 6 8c8 13 14 11 12-3zm-6-53c3-14 3-23 0-20-3 2-11 0-19-7l-13-11 6 18 7 18-11-7-12-7 7 16 6 17 9-14 10-13-5 23-5 22 8-5c4-3 10-16 12-30zm482-41 6-17-15 13c-17 14-19 20-6 20 5 0 12-7 15-16zm-499-24 6-10-15 6c-18 7-21 14-7 14 6 0 13-4 16-10zm-150-20-6-10h21v-17l-1-18-10 18-10 17h-34l15 10c8 5 19 10 23 10h8l-6-10zm385-5 12-15h-10c-5 0-12 7-16 15-3 8-4 15-2 15s9-7 16-15zm-265-13c-3-3-11 0-18 7l-12 12 18-7c10-3 15-9 12-12zm-10-43 3-16h-14c-8 0-14 4-14 9 0 4 6 8 13 8h12l-15 11-15 11 14-4c8-2 15-11 16-19zm289-11c9-12 16-27 16-32 0-6-8 1-17 14-9 14-22 28-27 32l-11 8h12c6 0 19-10 27-22zm-288-36c-3-2-13-1-23 3-10 5-21 8-25 7l-7-2 5 15 6 14 24-16c14-9 22-18 20-21zm-39-15v-14h-25l5 14c3 7 8 13 12 13s8-6 8-13zm-111-29 7-11-11 7-12 7v-12c0-7-3-10-6-6-6 5 3 27 11 27 2 0 7-5 11-12zm71-116 2-27-7 18-8 19-14-18-15-18 11 7 12 7 5-14 6-14-20 5c-20 6-23 12-13 37l6 16h29l-7 13-7 12 8-8c5-4 10-20 12-35zm-17-59c0-3-6-3-14 0l-14 5-13-11-13-12 13 17 12 17 15-6c8-3 14-7 14-10zm-120-3c0-5-2-10-4-10-3 0-8 5-11 10l-6 10h10c6 0 11-4 11-10zm100-20c0-5-5-10-11-10h-10l6 10c3 6 8 10 11 10 2 0 4-4 4-10zm31-33-12-12 7 18c3 10 9 15 12 12s0-11-7-18zm182-14c-7-2-19-2-25 0l-13 5h50l-12-5zm38-14-25-20 25 5c13 3 47 8 74 11 28 4 55 11 62 16l11 10 7-11 6-10-8 1c-4 1-12 1-18 0l-10-1 15-10 15-10h-75v-19l43-4 42-4-57-1-58-2v20h-18c-10 0-22-4-27-9-6-4-23-11-40-15l-30-6 16 12c9 7 19 23 23 36l7 22 9-5c5-3 11-1 15 5 3 5 9 10 13 10 4-1-4-10-17-21zm234 3c-3-3-11 0-18 7l-12 12 18-7c10-3 15-9 12-12zm-529-34c1-18 0-27-3-20l-5 12-9-6-9-5 9 24c6 14 8 28 5 31-2 3-1 4 3 1 3-3 7-20 9-37zm8-39c3 5 17 9 32 9h26l-13-8-12-8-15 6-15 5 8-13 8-13-10 6-11 7-12-16-13-15 27 5 27 5-3-11c-3-7-10-14-18-16l-13-5 9 14 8 14-17-14-17-13v10c0 6-7 18-16 26l-15 16h22l-7 11-6 11 20-11 21-11 5 9zm75-10c-22-13-31-11-17 5 7 8 17 12 22 9l8-5-13-9zm69 17c-2-1-14-10-28-21l-25-20 13 17 13 16-13 5-13 4h28c15 0 27 0 25-1zm166-28c-4-5-9-7-12-4s-10 2-16-4l-12-9-14 11-15 10 17-6 17-5 5 8c3 4 12 8 20 8h15l-5-9zm-224-13v-15l-35-17c-19-9-35-20-35-24s-15-16-34-27l-34-20-19 13-18 14 11 1c5 0 15-5 21-11l11-11 6 11 7 10-26 7-26 6 4 12 4 11 21-3 22-3v22l-9-5-9-6-5 20c-7 26 5 26 21 0l13-21 9 6c6 3 10 4 10 1s-12-12-26-19l-27-14 17-6 17-7-7 12-7 11 17-6 17-7-6 10-6 10h8c5 0 23 14 41 30 37 33 52 38 52 15zm232-17c-5-5-19-10-31-13l-23-4 11 12c5 7 19 13 30 13h21l-8-8zm88 2 15-10h-10c-5 0-17 5-25 10l-15 10h10c6 0 17-5 25-10zm150-15c0-2-9-3-19-2l-20 1 5 8 5 7 14-6c8-3 15-7 15-8zm17-30v-14l-9 5-8 5 5 10c9 13 12 11 12-6zm47-37-6-9-14 12-14 11 6 10 6 9 14-12 14-11-6-10zm-523 9-11-14 8-8 7-8-13 7-13 8 12 14c6 8 14 14 16 14 3 0 0-6-6-13zm-184-27c2-19-14-37-23-27-5 5 13 47 19 47 2 0 3-9 4-20zm113-52c-11-12-20-27-20-34s-4-15-9-18l-8-5 4 27 4 27-15-19c-20-25-20-8-1 18l15 20v-12c0-7 5-12 10-12 6 0 10 7 10 15v15h31l-21-22zm-190-38c0-5-5-10-11-10h-10l6 10c3 6 8 10 11 10 2 0 4-4 4-10zm-10-52c0-7-9-24-21-38l-20-25 18 38c18 39 23 45 23 25zm1120-70v-18h20v-29c0-31 37-159 50-176 5-5 16-36 25-68l17-59-7-134-7-134h-117l-6-10c-3-5-16-9-28-9l-22 1 20 5c11 3 28 12 38 21l19 17-5 37-5 38h20l-7 48c-6 44-39 132-85 226l-19 40 22 11 22 11 6 29c4 17 7 49 8 73l1 43-12-7-13-8 15 18c8 10 15 24 16 30 0 6 2 22 3 36l2 25 14-19c8-11 15-28 15-38zm-1180-48c-6-11-12-20-14-20s-2 9 1 20 9 20 15 20h9l-11-20zm170-69c0-6-4-13-10-16l-10-6v15c0 9 5 16 10 16 6 0 10-4 10-9zm69-84c1-5-6-1-15 7l-15 16 7 12 7 12 8-20c4-10 8-23 8-27zm-87-89-4-58h-18v34c0 32 17 94 23 85 2-2 1-30-1-61zm744 16c1-9 0-13-4-10-3 4-7 14-8 22-1 9 0 13 4 10 3-4 7-14 8-22zm138 0 6-15-10 6c-6 3-10 10-10 16 0 14 7 11 14-7zM854 845c-4-8-8-15-10-15s-4 7-4 15 4 15 10 15h9l-5-15zm1040-50 5-15-22-10-22-11 16 13 16 13-4 13c-6 17 4 15 11-3zm-82-79-4-54 16-33 16-32-20 18-19 17-7 45-7 45 12 24c6 13 12 24 14 24s2-24-1-54zm-585-18-4-23v90l4-22c2-13 2-33 0-45zm900-10-5-13-1 19c-1 11 2 17 5 13 3-3 4-12 1-19zM824 574c15-13 23-24 17-24-5 0-13 5-16 10l-6 10H698l35 39c19 21 39 49 43 62l8 24 6-49 6-49 28-23zm1622 89-1-18 13 3 13 2-6-10-7-11-19 17-19 18 12 8 14 8c1 0 1-8 0-17zm-551-13-6-10h10c5 0 12 6 15 13l5 12-3-22c-1-12-6-26-11-30l-8-8 7 13 7 12h-10c-5 0-11-4-13-9l-3-8-20 19-20 19 17-6 16-6 7 10c3 6 8 11 11 11s2-4-1-10zm-595-41c0-5-4-9-10-9-5 0-10 7-10 16v15l10-6c6-3 10-10 10-16zm484 0-5-9-10 6-9 5 6 10 5 9 10-6 9-5-6-10zm-384-5c0-2-9-4-20-4s-20 4-20 9v9l20-5c11-3 20-7 20-9zm610-10c0-2-4-5-9-9l-10-5-5 8-5 9h14c8 0 15-2 15-3zm51-9v-10l-23-2-23-1 24 5 24 5-14 10-14 10 13-4c8-2 13-8 13-13zm-246-5 6-10-15 6c-18 7-21 14-7 14 6 0 13-4 16-10zm-420-9 5-10-10-6-10-6v15c0 18 6 21 15 7zm435-34v-8l9 6 10 5 5-8 5-9h-14c-8 0-25 11-37 25l-23 25 23-14c12-8 22-17 22-22zM665 550c-3-5-13-10-21-10s-14 5-14 10v10h41l-6-10zm355 6c0-3-4-8-10-11l-10-6v10c0 6 5 11 10 11 6 0 10-2 10-4zm761-29-12-12 7 18c3 10 9 15 12 12s0-11-7-18zm-521 983c-8-5-12-12-9-15 4-3 12 1 19 10 14 17 11 19-10 5zm268 1113c7-3 16-2 19 1 4 3-2 6-13 5l-19-1 13-5zm-144-57-6-15 12-18 11-18-7 24-6 24 11-7 11-7-6 15c-8 20-13 20-20 2zm616 5c0-8 32-21 54-21h8l-12 15c-13 16-50 21-50 6zm-270-48v-23h35l-15 11-15 11 13 5c17 7 15 20-3 20h-15v-24zm-345-23-6-10h10c6 0 11 5 11 10 0 6-2 10-4 10-3 0-8-4-11-10zm36-16 1-19 5 13c3 7 2 16-1 19-3 4-6-2-5-13zm-126-14-6-10h10c6 0 11 5 11 10 0 6-2 10-4 10-3 0-8-4-11-10zm98-12 6-17-9-6-10-6v17c0 10-2 15-5 12-4-3-3-18 1-33l7-28 14 28 15 27-13 12-12 11 6-17zm-21-77-13-8 14-12 15-11 5 20c5 21 0 25-21 11zm-192-15c0-2 7-7 16-10l15-6-6 10c-6 10-25 14-25 6zm-20-76c0-5 5-10 11-10h10l-6 10c-3 6-8 10-11 10-2 0-4-4-4-10zm50-25-12-15h42v15c0 8-4 15-9 15s-14-7-21-15zm55 5 6-10 10 5c14 9 11 15-7 15h-15l6-10zm55-5c-7-8-16-13-20-10s-11-2-14-11l-6-15 10 6 10 6v-10c0-6-4-11-10-11h-9l6-16 6-16 19 38c10 21 24 41 31 46l12 8h-11c-6 0-17-7-24-15zm-122-62c7-3 16-2 19 1 4 3-2 6-13 5l-19-1 13-5zm-7-69 1-19 5 13c3 7 2 16-1 19-3 4-6-2-5-13zm890-140 1-19 5 13c3 7 2 16-1 19-3 4-6-2-5-13zm-1055-123c-4-7-5-15-2-18 9-9 19 4 14 18l-4 13-8-13zm101-6 5-15 9 6c12 7 11 11-5 17l-15 6 6-14zm-61-11c-9-22-8-24 9-24h15v20c0 24-15 27-24 4zm-121-44-6-10h10c6 0 11 5 11 10 0 6-2 10-4 10-3 0-8-4-11-10zm185-70c0-5 5-10 10-10 6 0 10 5 10 10 0 6-4 10-10 10-5 0-10-4-10-10zm-86-176-1-34h10c6 0 8 3 4 6-3 3-2 16 3 29l9 23-12 5-12 4-1-33zm-74-109 13-16-12-25-11-25 11 6c6 4 14 17 19 29l8 21-10 13c-6 6-15 12-20 12h-10l12-15zm-10-79c0-2 7-7 16-10l15-6-6 10c-6 10-25 14-25 6zm3-35c2-11 7-24 12-28l8-8-6 12-7 11 9 4 9 3-14 13-14 13 3-20zm-76-208c3-7 9-13 13-13s10 6 13 13l5 13h-36l5-13zm-2-33c3-5 8-10 11-10 2 0 4 5 4 10 0 6-5 10-11 10h-10l6-10zm-60-50-6-10h10c5 0 13 5 16 10l6 10h-10c-5 0-13-4-16-10zm167-22c-7-7-12-16-12-21s7-1 16 8 14 18 12 20c-2 3-10-1-16-7zm25-29c7-7 15-10 18-7s-2 9-12 12l-18 7 12-12zm-212-78-5-10 8-5 9-5v14c0 17-3 19-12 6zm125-9c0-11-4-24-10-27-5-3-15-15-20-25l-10-20 15 6 15 6-5 8c-3 5-1 11 5 15l10 6 1-13c1-7 1-16 1-19-1-3 6-6 13-6h15l-8 11c-5 6-9 24-10 40-2 34-12 49-12 18zM752 790c-6-11-12-23-12-27 0-5 5 0 11 10l10 17 9-5 9-5 7 11 7 12-11-7-10-6-4 10-3 10-13-20zm238 0c0-5 5-10 10-10 6 0 10 5 10 10 0 6-4 10-10 10-5 0-10-4-10-10zm-266-48c4-3 14-7 22-8 9-1 13 0 10 4-4 3-14 7-22 8-9 1-13 0-10-4zm201-22-6-10h10c6 0 11 5 11 10 0 6-2 10-4 10-3 0-8-4-11-10zm-55-39v-9l-22 4-23 4 20-9 20-9 10 8c6 4 17 10 25 13l15 5-22 1-23 1v-9zm-10-42v-10l-12 7-11 7 7-11 7-11 14 5 15 6-6 9c-7 12-14 11-14-2zM499 234c-5-15-7-29-4-32s5 0 5 6v12h40v40h-30l-11-26z"/></g><g fill="#bbae97" transform="matrix(.1 0 0 -.1 0 300)"><path d="m1623 2590-5-20h-149l-21 11c-28 15-35 3-15-30l17-29v-32c0-17-7-44-15-60-14-27-32-73-92-235-14-38-29-74-33-80-4-5-11-21-15-35-8-28-91-244-105-275-5-11-21-50-35-87-14-38-36-98-50-135-14-38-30-77-35-88s-20-49-34-85c-13-36-38-101-55-145-18-44-45-114-61-155s-43-111-60-155-42-110-55-147c-27-77-68-141-120-186l-35-32-28-6c-15-3-37-9-49-14l-22-9-30 9-31 9v-58l15 5c8 4 15 10 15 15v9h58l4-12 5-13h296l4 13 5 12h59l5-15c8-20 30-19 38 2l7 17-15 14-15 15-14-11-14-12-45 20c-56 25-68 39-75 87l-5 38 42 105c23 58 48 119 55 135 7 17 16 41 20 55 12 42 86 172 132 232 87 114 208 215 326 273l52 25 79 16 79 16 39-5 38-5v9c0 5 5 9 10 9 6 0 10-7 10-15v-15l36-15 36-15 10 6 9 6 19-17 18-16 8 12 7 12-29 25c-38 31-123 72-152 72h-23l6-20 6-20h-102l-20 11-20 10-12-9c-11-9-32-15-96-27-47-9-196-109-279-186-30-28-56-48-59-46-2 3 9 36 25 74 16 37 33 79 37 93s13 39 21 55c7 17 34 84 59 150s56 145 69 175 27 66 31 80 13 39 21 55c12 28 22 54 89 230 14 39 32 84 39 100 8 17 17 40 20 52 4 12 12 24 19 26s4 3-5 2c-23-4-23 7 0 35l18 22 19-39c11-21 23-39 28-41 4-2 7-9 7-16 0-18 65-150 81-163 8-6 35-17 59-23l46-11 31-67c17-37 39-89 49-117 10-27 21-52 25-55 3-3 16-36 29-75 12-38 27-75 31-81 5-6 18-39 29-74s24-68 29-74c4-6 18-42 30-81 13-38 27-79 32-90 14-31 29-122 29-179 0-61-13-113-46-184-13-29-24-57-24-63 0-12-82-150-87-146-2 2 4 20 12 40s15 47 15 59v23l-26-50c-15-28-39-68-54-90-38-56-60-101-60-122l1-18 15 28c20 37 24 34 12-10l-10-37 5-44 5-43 18-14 19-13-8-9-9-8-19 24c-10 13-19 19-19 14s9-19 21-31l20-22 9 5 10 6-6-14-5-14 18-7 18-7 3 10c2 6 10 11 18 11h14v-34l12 12 12 12h107l15-15 15-15h550l-3 27-3 28-62 6-62 6-25 16c-34 23-71 74-96 133-12 27-25 58-30 69s-21 50-35 88c-60 160-77 204-89 232-8 17-19 48-26 70s-19 51-26 65c-8 14-18 37-24 53-5 15-14 27-19 27h-10l4-44c2-23 13-63 23-87s22-65 25-92c4-26 16-66 26-88 11-22 32-81 46-131l27-90-7-124-7-124h-136l-4-12-4-12-19 8-20 7 33 16 32 16 6 24c10 38-2 38-42-1l-37-36h-30c-17 0-59 5-94 11l-63 11-20 25c-11 14-22 40-26 58l-6 34 12 36 12 36 81 98 82 99 33 64 33 65 16 83 17 83-12 92c-6 50-20 118-31 151-23 69-67 190-81 219-15 34-100 254-100 261 0 3-6 20-14 37-22 48-156 394-156 401 0 3-11 29-24 58-14 29-27 65-31 80l-7 27-15 5-15 6-5-20zm-133-82v-20l-14 11c-8 6-16 20-19 31l-5 20 19-11 19-10v-21zm-343-900-5-13-1 19c-1 11 2 17 5 13 3-3 4-12 1-19zm-63-173c-4-8-8-15-10-15s-4 7-4 15 4 15 10 15h9l-5-15zm-40-137c-3-5-9-6-14-3l-9 6 6 15 6 16 8-13c4-7 5-17 3-21zm-19-57c-4-17-10-31-14-31-5 0-16-18-26-40-10-23-22-43-27-46l-8-5 8 18c28 64 67 141 70 138 2-2 1-17-3-34zM911 998c-5-13-12-32-15-42-4-10-9-16-12-14-6 6 22 78 30 78 3 0 2-10-3-22zm960-151-12-12 7 18c3 10 9 15 12 12s0-11-7-18zM846 825c-6-19-14-35-18-35-3 0-1 16 5 35s13 35 17 35 2-16-4-35zm-53-144c-3-22-3-51 1-64l6-25 30-19 30-19-90 4-90 4v-22h-50v9c0 5 15 12 33 15l32 6 39 48c21 26 43 59 48 75 14 38 17 34 11-12zm722 1674c4-16 15-47 24-70 10-22 24-56 30-76 17-52 70-176 71-163 0 13-23 81-44 127-8 17-20 50-27 72s-23 62-36 90l-25 50 7-30zm135-365c0-5 5-10 10-10 6 0 10 5 10 10 0 6-4 10-10 10-5 0-10-4-10-10zm21-26c-1-15 30-106 35-101 2 2-5 28-15 58-11 30-20 49-20 43zm-83-381c6-2 18-2 25 0l12 5h-50l13-5zm224-110c20-21 45-56 56-78 12-22 21-34 22-27 1 34-78 142-104 142-6 0 6-17 26-37zm109-209 1-19 5 13c3 7 2 16-1 19-3 4-6-2-5-13zm11-64v-25l5 13c2 6 2 18 0 25l-5 12v-25zm145-145-26-54 8-5c5-3 15 2 24 12l15 17 7 43c4 23 5 42 3 42s-16-25-31-55z"/></g><g fill="#7b6e5a" transform="matrix(.1 0 0 -.1 0 300)"><path d="M1620 2584v-16l-95 4-95 3v-7c0-4 9-12 19-18l20-10 14 6 14 5-2-28c-3-41-4-43-18-37l-13 5-31-78c-18-43-48-121-68-173-75-195-107-277-140-360-45-114-121-310-152-390-31-81-83-214-117-300-14-36-36-95-50-132-15-38-37-98-51-134-14-37-24-71-22-77 1-5 11 18 22 52 10 33 21 61 25 61s13 19 19 43c13 41 33 88 91 212 16 33 34 86 41 118 7 31 15 57 19 57 3 0 14 26 25 58 10 31 24 68 32 82 7 14 22 51 34 83l21 58 12-4 13-5 33 86c19 48 58 148 87 222l53 135-5 14-6 15 7-7 8-7 33 81 34 81-6 21-6 22 9-13 9-14 6 19c2 10 12 35 21 55l16 37-16-6-16-6 18 29c10 16 23 32 29 36l10 7 17-16c10-9 26-39 37-67s31-74 45-103l26-52 55-16 55-17 21-39c11-22 34-74 50-117 17-42 40-99 51-127 11-27 28-68 38-90s24-59 31-82c6-24 15-43 19-43s7-6 8-12c1-21 41-130 52-143l10-12-7-7-7-7 11-7 11-7 16-79c9-43 16-103 16-134v-56l-16-65c-9-36-20-68-24-71s-17-31-29-64l-22-58-53-72c-29-39-56-79-59-88-6-16-27-26-27-13 0 3 16 27 35 54 38 52 70 120 61 129-3 3-6 1-6-5 0-5-27-52-60-103s-60-98-60-104l1-11 10 18 10 17 9-5 9-5-15-28-14-27v-75h20v86l30 47c16 26 47 66 68 89 61 69 91 113 127 190l34 73 9 75 9 75-8 77-9 76-39 109c-38 103-72 193-141 368-17 44-39 103-49 130-10 28-28 73-39 100-12 28-42 104-67 170s-60 155-77 198l-31 77h-27v-16zm187-466-5-13-1 19c-1 11 2 17 5 13 3-3 4-12 1-19zm-557-255-12-18 6 18c3 10 6 24 7 30l1 12 4-12c3-7 0-20-6-30zm679-53-1-15-13 35c-18 46-17 64 0 25 8-16 14-37 14-45zm-701-4c-7-8-15-12-17-11-5 6 10 25 20 25h10l-13-14zm-24-60c-3-15-8-25-11-23-2 3-1 17 3 31 3 15 8 25 11 23 2-3 1-17-3-31zm783-98-5-13-1 19c-1 11 2 17 5 13 3-3 4-12 1-19zm61-163v-20l-8 25c-4 14-8 32-8 40l-1 15 9-20c5-11 8-29 8-40zm-904 108c-10-32-22-61-27-64s-9-10-9-15-2-13-4-19c-78-214-48-170 45 68 35 88 34 87 22 87-5 0-17-26-27-57zm512-7 5-14 37-7c20-4 39-10 42-13 9-12 91-54 96-49 15 14-132 97-172 97h-13l5-14zm-159-12c-4-4-21-8-38-9l-32-3-7-11c-4-7-11-11-16-9-6 2-33-8-62-21l-52-24v-13c0-7-5-16-12-20l-11-7 7 11 7 12h-21v-31l-8 5c-12 7-52-22-52-37 0-7-22-32-48-57l-47-45 25 30c14 17 34 38 45 47l20 18h-10c-5 0-40-28-77-63l-66-62-7-25c-4-14-19-45-34-70s-36-69-46-97c-11-29-23-53-28-53h-9l5-15 6-14-9-6c-5-3-16-29-25-58-10-28-21-56-26-61-12-13-11-26 0-26 5 0 17 24 27 53 28 84 79 191 130 269l47 73 70 72c39 40 94 89 123 109l52 36-5 17-5 16 9-12 9-13 79 35c43 18 96 37 118 41l40 6-14 9c-17 10-43 12-52 3zm-452-244c3-5 8-10 11-10 2 0 4 5 4 10 0 6-5 10-11 10h-10l6-10zm1090-47c4-46 27-113 38-113h9l-7-30-6-29 15-33c8-18 36-91 61-162l45-128V560l-77-2-78-2 63-3 63-4-6-10-6-9 187 2 187 3 5 14 5 14-17-6-16-6v19h-60v-22l-36 7-36 6-21 20c-11 10-24 19-29 19-4 0-15 15-24 33l-17 32 31-32c16-18 35-33 42-33h12l-27 31c-14 18-35 49-46 70-15 31-114 280-201 509l-9 24-10-14-10-15 2 25c3 32-11 90-21 90h-8l3-37zm-63-253-12-20h10c6 0 13 7 17 15 9 24-1 27-15 5zM835 793c-9-32-21-61-26-64s-12-29-16-57l-6-52h24l-6-9-5-10 34-27 35-28 45 3 46 3v-22h15c8 0 15 4 15 9 0 14-22 26-45 23-11-1-42 6-70 16l-49 18-4 60-3 60 19 49c11 28 23 58 27 68l7 17h-21l-16-57zm-20 27-6-10h10c6 0 11 5 11 10 0 6-2 10-4 10-3 0-8-4-11-10zm-29-74c-3-14-29-52-56-85l-51-61-32-16-32-17-62-1-63-1v-37l14 12 15 12 38-3c21-1 58 4 83 11l45 12 42 46 43 46 16 49c9 26 14 50 11 53-2 3-7-6-11-20zm1039-116-6-10h10c6 0 11 5 11 10 0 6-2 10-4 10-3 0-8-4-11-10zm276-37c-26-32-20-41 14-19l25 16v15c0 23-16 18-39-12zm-228-17c2-6 12-13 23-15 10-2 21-6 24-10l5-6 75 6 75 5-40 3c-22 1-68 8-103 15l-63 14 4-12zM728 553c18-2 45-2 60 0l27 4H695l33-4z"/></g><g fill="#312a20" transform="matrix(.1 0 0 -.1 0 300)"><path d="M1620 2575v-15h-120l-1-12c-1-7 0-23 1-36l2-23-20-6-19-5-88-226c-48-125-100-258-115-297-15-38-39-99-53-135l-25-65 14-13 15-13-6 28-7 28 9-12 9-13v33l1 32 23 52 23 52 9-5 8-5-2 18v37l2 18 14-5 14-6 6 15c9 23 7 31-4 14l-9-14-6 6-7 7 15 21 15 21 6-13 6-13-5 28-6 29 10-6 9-6-5 20-5 20 18 1 19 1-12 5c-7 2-13 9-13 15v10l15-6 15-5v7c0 5-6 14-12 21l-13 14 18-6 18-7-6 21-7 22 13-8 12-8-5 21-6 22h17l-5 15-6 15h34l-13 17-14 17 18-7 17-6v8c0 5-5 11-12 13l-12 4 8 13 9 13 9-13 9-14-6 24-7 24 12-8 13-8-7 27-7 28 12-7 11-8-6 19-6 19 23 29 23 29 20-11 19-10 19-49c10-26 30-70 44-97l27-50 53-14 53-15 20-41c25-50 73-162 101-236 11-30 25-59 29-65 10-10-23 94-41 130-5 11-19 47-30 80-12 33-27 71-34 85s-21 50-31 80-21 60-25 65c-4 6-15 35-25 65s-25 73-35 95-21 50-24 63l-7 22h10c6 0 11 5 11 10 0 6-7 10-15 10h-15v-15zm51-65c0-8 6-28 14-45 17-39 18-21 0 25l-13 35-1-15zm65-172c13-43 23-68 28-68 3 0-2 20-11 45-15 45-31 65-17 23zm55-147c12-34 23-60 25-58 5 5-26 100-37 112-5 5 0-19 12-54zm49-119c0-8 27-82 52-142 8-19 23-57 32-83 10-27 20-47 22-45s-10 40-27 84c-17 43-40 105-51 137-18 52-28 69-28 49zm61-232c0-8 4-22 9-30l10-15-1 10c0 6-4 19-9 30l-9 20v-15zm20-60c0-8 4-22 9-30l10-15-1 10c0 6-4 19-9 30l-9 20v-15zm34-10c4-14 18-52 32-85 28-67 87-252 96-303l7-33-10 6-10 6v-141h-17l-6-41c-7-56-83-221-129-280-15-20-28-41-28-45 0-13 56 55 108 132l48 70 29 87 28 87-6 98-6 97-35 100c-47 135-93 256-102 264l-6 6 7-25zm-809-106c-9-26-14-49-12-51s11 17 20 43 14 49 12 51-11-17-20-43zm40 31c-9-26-7-32 5-12 6 10 9 21 6 23-2 3-7-2-11-11zm776-5c0-8 6-31 13-50s13-28 13-20-6 31-13 50-13 28-13 20zm-826-115c-3-9-6-22-5-28 0-7 5-1 10 12s8 26 5 28c-2 2-6-3-10-12zm524 7c0-8 92-32 99-26 6 5-65 34-84 34-8 0-15-3-15-8zm-164-11-6-9 20 5c23 6 26 13 6 13-8 0-17-4-20-9zm-41-11-6-10h10c6 0 11 5 11 10 0 6-2 10-4 10-3 0-8-4-11-10zm-35-21v-10l10 6c6 3 10 8 10 11 0 2-4 4-10 4-5 0-10-5-10-11zm-47-11c-13-6-23-15-23-20v-8l25 16c37 24 35 30-2 12zm648 2c0-8 4-24 9-35l9-20v15c0 8-4 24-9 35l-9 20v-15zm-940-31c-6-18-11-37-10-43 0-6 7 7 15 28 8 22 12 41 10 43s-9-10-15-28zm716 20c7-7 15-10 18-7s-2 9-12 12l-18 7 12-12zm-541-64-5-15h9c5 0 11 4 15 9l5 10-9 5-9 6-6-15zm785-11 1-19 5 13c3 7 2 16-1 19-3 4-6-2-5-13zm-842-36-12-23 19 15c10 8 20 15 22 16s-1 5-7 8l-10 7-12-23zm853-18v-25l5 13c2 6 2 18 0 25l-5 12v-25zm-983-86c-18-19-33-37-31-40 1-2-12-32-29-67-35-70-32-68 34 21 47 62 56 79 37 67l-10-6v7c0 4 10 18 22 31s19 23 17 23c-3 0-21-16-40-36zm-88-67-34-87 7-7 6-6v14c0 8 14 43 30 78l31 64-3 16-3 16-34-88zm1159 24c0-11 5-23 10-26l10-6v20c0 11-4 23-10 26l-10 6v-20zm26-56-6-18 15-11c8-6 23-36 34-66s40-109 66-175 55-145 66-175l19-55 26-30 25-30-25 50c-23 45-65 150-162 407-18 49-37 95-42 104l-9 16-7-17zm4-84c0-6 4-13 10-16l10-6-6 15c-7 18-14 21-14 7zm23-41c15-52 41-127 47-135 4-5 21-55 38-110l30-100 6-79 5-79 13-9c7-4 40-9 73-10l60-2-75-6-75-6 88-2 87-2v8c0 4-15 14-33 22l-32 15-31 42-32 41-20 59c-11 32-37 96-57 143s-45 109-55 137c-10 29-24 61-30 70l-12 18 5-15zm-348-281c-4-6-5-12-2-15 2-3 7 2 10 11 7 17 1 20-8 4zm-34-75 1-19 5 13c3 7 2 16-1 19-3 4-6-2-5-13zM716 637l-59-69 26 17c26 17 103 113 96 119-2 1-31-29-63-67zm74 23v-30h20v60h-20v-30zm1021 14 1-19 5 13c3 7 2 16-1 19-3 4-6-2-5-13zm306-71c-4-3-7-11-7-17v-10l12 12c6 6 9 14 7 17-3 3-9 2-12-2zM854 564l20-14h30c39 0 31 7-24 19l-45 10 19-15zm1066-5v-9h72c88 0 86 6-4 13l-68 5v-9zm-1424-8-5-8 24 5c14 2 25 6 25 8 0 8-39 4-44-5zm82 2c6-2 18-2 25 0l12 5h-50l13-5zm1957-3-20-9h50l50-1-15 10c-18 12-38 12-65 0zM965 540c3-5 8-10 11-10 2 0 4 5 4 10 0 6-5 10-11 10h-10l6-10z"/></g></g></svg>